<svg viewBox="455.0001 344.6165 380 123.4319" width="5000" height="1624.103947368421" xmlns="http://www.w3.org/2000/svg" xmlns:xlink="http://www.w3.org/1999/xlink" preserveAspectRatio="none"><defs></defs><style>.companyName {fill:#4D4D4D;fill-opacity:1;}.icon1 {fill:#FF834F;fill-opacity:1;}.icon2 {fill:#FF4949;fill-opacity:1;}.icon3 {fill:#FFAE78;fill-opacity:1;}.icon3-str {stroke:#FFAE78;stroke-opacity:1;}.shapeStroke-str {stroke:#313131;stroke-opacity:1;}.text {fill:#4D4D4D;fill-opacity:1;}</style><g opacity="1" transform="rotate(0 455.0001 351.9491)">
<svg width="99.2497" height="108.7667" x="455.0001" y="351.9491" version="1.1" preserveAspectRatio="none" viewBox="27 20 146 160">
  <g transform="matrix(1 0 0 1 0 0)" ><g><path d="M118 99.9v1.1l-87.4.3v-1.1c0 .1 87.4-.3 87.4-.3z" data-color="1" class="icon1"></path><path d="M118.5 100.4l35 75.9-1 .5-35-75.9 1-.5z" data-color="1" class="icon1"></path><path d="M169.5 23l1 .6-52.2 77.2-1-.6L169.5 23z" data-color="1" class="icon1"></path><path d="M118.3 100.5l2.9 69.1H120l-2.9-69.1h1.2z" data-color="1" class="icon1"></path><path d="M126.1 35.6l1.1.2-8.9 64.8-1.1-.2c-.1 0 8.9-64.8 8.9-64.8z" data-color="1" class="icon1"></path><path d="M71 66.8l47 33.2-.7.9-47-33.2c.1 0 .7-.9.7-.9z" data-color="1" class="icon1"></path><path d="M103.1 74l15 26.1-1 .6-15-26.1 1-.6z" data-color="1" class="icon1"></path><path d="M152.1 86.5l.4 1.1-34.6 13.4-.4-1.1 34.6-13.4z" data-color="1" class="icon1"></path><path d="M117.9 100l31.4 13.3-.5 1.1-31.3-13.4.4-1z" data-color="1" class="icon1"></path><path d="M117.3 100.2l.9.7L88 142.1l-.9-.7 30.2-41.2z" data-color="1" class="icon1"></path><path d="M117.4 100l.6 1-22.6 12.5-.6-1 22.6-12.5z" data-color="1" class="icon1"></path><path d="M117.1 100.4l1.1.3-7.7 32.1-1.1-.3 7.7-32.1z" data-color="1" class="icon1"></path><path d="M125.1 80.4l1.1.4-7.9 19.8-1.1-.4 7.9-19.8z" data-color="1" class="icon1"></path><path d="M126.8 36.4c-1.2 0-2.1-.9-2.1-2.1s.9-2.1 2.1-2.1c1.2 0 2.1.9 2.1 2.1 0 1.1-1 2.1-2.1 2.1zm0-3.1c-.5 0-.9.4-.9.9s.4.9 1 .9c.5 0 .9-.4.9-.9-.1-.4-.5-.9-1-.9z" data-color="1" class="icon1"></path><path d="M170.9 24.2c-1.2 0-2.1-.9-2.1-2.1s.9-2.1 2.1-2.1c1.2 0 2.1.9 2.1 2.1 0 1.2-.9 2.1-2.1 2.1zm0-3.1c-.5 0-.9.4-.9.9s.4.9.9.9.9-.4.9-.9c0-.4-.4-.8-.9-.9z" data-color="1" class="icon1"></path><path d="M153.6 88.5c-1.2 0-2.1-.9-2.1-2.1 0-1.2.9-2.1 2.1-2.1 1.2 0 2.1.9 2.1 2.1.1 1.2-.9 2.1-2.1 2.1zm0-3c-.5 0-.9.4-.9.9s.4.9.9.9.9-.4.9-.9c.1-.5-.3-.9-.9-.9z" data-color="1" class="icon1"></path><path d="M150.6 116.5c-1.2 0-2.1-.9-2.1-2.1 0-1.2.9-2.1 2.1-2.1 1.2 0 2.1.9 2.1 2.1 0 1.1-.9 2.1-2.1 2.1zm0-3.1c-.5 0-.9.4-.9.9s.4.9.9.9.9-.4.9-.9c.1-.4-.3-.9-.9-.9z" data-color="1" class="icon1"></path><path d="M153.6 180c-1.2 0-2.1-.9-2.1-2.1 0-1.2.9-2.1 2.1-2.1 1.2 0 2.1.9 2.1 2.1.1 1.2-.9 2.1-2.1 2.1zm0-3c-.5 0-.9.4-.9.9s.4.9.9.9.9-.4.9-.9c.1-.5-.3-.9-.9-.9z" data-color="1" class="icon1"></path><path d="M120.8 173.2c-1.2 0-2.1-.9-2.1-2.1s.9-2.1 2.1-2.1c1.2 0 2.1.9 2.1 2.1 0 1.2-1 2.1-2.1 2.1zm0-3c-.5 0-.9.4-.9.9s.4.9.9.9.9-.4.9-.9-.4-.9-.9-.9z" data-color="1" class="icon1"></path><path d="M86.7 145c-1.2 0-2.1-.9-2.1-2.1 0-1.2.9-2.1 2.1-2.1 1.2 0 2.1.9 2.1 2.1 0 1.2-1 2.1-2.1 2.1zm0-3c-.5 0-.9.4-.9.9s.4.9.9.9.9-.4.9-.9-.4-.9-.9-.9z" data-color="1" class="icon1"></path><path d="M109.7 136.1c-1.2 0-2.1-.9-2.1-2.1s.9-2.1 2.1-2.1c1.2 0 2.1.9 2.1 2.1 0 1.1-.9 2.1-2.1 2.1zm0-3.1c-.5 0-1 .4-1 .9s.4.9.9.9 1-.4 1-.9c.1-.5-.3-.9-.9-.9z" data-color="1" class="icon1"></path><path d="M93.9 115.9c-1.2 0-2.1-.9-2.1-2.1 0-1.2.9-2.1 2.1-2.1 1.1 0 2 .9 2.1 2 .1 1.2-.8 2.2-2 2.2h-.1zm0-3.1c-.6 0-1 .5-.9 1 0 .2.1.5.3.6.2.2.4.2.7.2.5 0 .9-.5.9-1-.1-.4-.5-.8-1-.8z" data-color="1" class="icon1"></path><path d="M29.1 102.9c-1.2 0-2.1-.9-2.1-2.1 0-1.2.9-2.1 2.1-2.1 1.2 0 2.1.9 2.1 2.1 0 1.2-.9 2.1-2.1 2.1zm0-3c-.5 0-.9.4-.9.9s.4.9.9.9.9-.4.9-.9c.1-.5-.4-.9-.9-.9z" data-color="1" class="icon1"></path><path d="M69.4 68.5c-1.2 0-2.1-.9-2.1-2.1s.9-2.1 2.1-2.1 2.1.9 2.1 2.1c0 1.2-.9 2.1-2.1 2.1zm0-3c-.5 0-.9.4-.9.9s.4.9.9.9.9-.4.9-.9c.1-.5-.4-.9-.9-.9z" data-color="1" class="icon1"></path><path d="M101.9 75.1c-1.2 0-2.1-.9-2.1-2.1 0-1.2.9-2.1 2.1-2.1 1.2 0 2.1.9 2.1 2.1 0 1.2-.9 2.1-2.1 2.1zm0-3c-.5 0-1 .4-1 .9s.4.9.9.9 1-.4 1-.9-.4-.9-.9-.9z" data-color="1" class="icon1"></path><path d="M126.2 81.3c-1.2 0-2.1-.9-2.1-2.1 0-1.2.9-2.1 2.1-2.1 1.2 0 2.1.9 2.1 2.1 0 1.2-1 2.1-2.1 2.1zm0-3c-.5 0-.9.4-.9.9s.4.9.9.9.9-.4.9-.9-.4-.9-.9-.9z" data-color="1" class="icon1"></path></g></g>
</svg>
</g><g opacity="1" transform="rotate(0 593.3569 434.4407)">
<svg width="126.5536" height="17.1094" x="593.3569" y="434.4407" version="1.1" preserveAspectRatio="none" viewBox="1.52 -30.88 287.88 38.92">
  <g transform="matrix(1 0 0 1 0 0)" class="text"><path id="id-6izo4zJp11" d="M23.36-10.56Q23.36-10.04 23.28-9.08L23.28-9.08L6.52-9.08Q6.96-6.72 8.82-5.34Q10.68-3.96 13.44-3.96L13.44-3.96Q16.96-3.96 19.24-6.28L19.24-6.28L21.92-3.20Q20.48-1.48 18.28-0.60Q16.08 0.28 13.32 0.28L13.32 0.28Q9.80 0.28 7.12-1.12Q4.44-2.52 2.98-5.02Q1.52-7.52 1.52-10.68L1.52-10.68Q1.52-13.80 2.94-16.30Q4.36-18.80 6.88-20.20Q9.40-21.60 12.56-21.60L12.56-21.60Q15.68-21.60 18.14-20.22Q20.60-18.84 21.98-16.34Q23.36-13.84 23.36-10.56L23.36-10.56ZM12.56-17.60Q10.16-17.60 8.50-16.18Q6.84-14.76 6.48-12.40L6.48-12.40L18.60-12.40Q18.28-14.72 16.64-16.16Q15-17.60 12.56-17.60L12.56-17.60Z M44.28-21.60Q48.32-21.60 50.76-19.24Q53.20-16.88 53.20-12.24L53.20-12.24L53.20 0L48.20 0L48.20-11.60Q48.20-14.40 46.88-15.82Q45.56-17.24 43.12-17.24L43.12-17.24Q40.36-17.24 38.76-15.58Q37.16-13.92 37.16-10.80L37.16-10.80L37.16 0L32.16 0L32.16-21.36L36.92-21.36L36.92-18.60Q38.16-20.08 40.04-20.84Q41.92-21.60 44.28-21.60L44.28-21.60Z M80.20-21.36L84.96-21.36L84.96-3.24Q84.96 8.04 73.44 8.04L73.44 8.04Q70.36 8.04 67.60 7.26Q64.84 6.48 63.04 5L63.04 5L65.28 1.24Q66.68 2.40 68.82 3.10Q70.96 3.80 73.16 3.80L73.16 3.80Q76.68 3.80 78.32 2.20Q79.96 0.60 79.96-2.68L79.96-2.68L79.96-3.80Q78.68-2.40 76.84-1.68Q75-0.96 72.80-0.96L72.80-0.96Q69.76-0.96 67.30-2.26Q64.84-3.56 63.42-5.92Q62.00-8.28 62.00-11.32L62.00-11.32Q62.00-14.36 63.42-16.70Q64.84-19.04 67.30-20.32Q69.76-21.60 72.80-21.60L72.80-21.60Q75.12-21.60 77.02-20.84Q78.92-20.08 80.20-18.52L80.20-18.52L80.20-21.36ZM73.56-5.20Q76.40-5.20 78.22-6.90Q80.04-8.60 80.04-11.32L80.04-11.32Q80.04-14 78.22-15.68Q76.40-17.36 73.56-17.36L73.56-17.36Q70.68-17.36 68.86-15.68Q67.04-14 67.04-11.32L67.04-11.32Q67.04-8.60 68.86-6.90Q70.68-5.20 73.56-5.20L73.56-5.20Z M95.52 0L95.52-21.36L100.52-21.36L100.52 0L95.52 0ZM98.04-24.88Q96.68-24.88 95.76-25.74Q94.84-26.60 94.84-27.88L94.84-27.88Q94.84-29.16 95.76-30.02Q96.68-30.88 98.04-30.88L98.04-30.88Q99.40-30.88 100.32-30.06Q101.24-29.24 101.24-28L101.24-28Q101.24-26.68 100.34-25.78Q99.44-24.88 98.04-24.88L98.04-24.88Z M123.20-21.60Q127.24-21.60 129.68-19.24Q132.12-16.88 132.12-12.24L132.12-12.24L132.12 0L127.12 0L127.12-11.60Q127.12-14.40 125.80-15.82Q124.48-17.24 122.04-17.24L122.04-17.24Q119.28-17.24 117.68-15.58Q116.08-13.92 116.08-10.80L116.08-10.80L116.08 0L111.08 0L111.08-21.36L115.84-21.36L115.84-18.60Q117.08-20.08 118.96-20.84Q120.84-21.60 123.20-21.60L123.20-21.60Z M162.76-10.56Q162.76-10.04 162.68-9.08L162.68-9.08L145.92-9.08Q146.36-6.72 148.22-5.34Q150.08-3.96 152.84-3.96L152.84-3.96Q156.36-3.96 158.64-6.28L158.64-6.28L161.32-3.20Q159.88-1.48 157.68-0.60Q155.48 0.28 152.72 0.28L152.72 0.28Q149.20 0.28 146.52-1.12Q143.84-2.52 142.38-5.02Q140.92-7.52 140.92-10.68L140.92-10.68Q140.92-13.80 142.34-16.30Q143.76-18.80 146.28-20.20Q148.80-21.60 151.96-21.60L151.96-21.60Q155.08-21.60 157.54-20.22Q160-18.84 161.38-16.34Q162.76-13.84 162.76-10.56L162.76-10.56ZM151.96-17.60Q149.56-17.60 147.90-16.18Q146.24-14.76 145.88-12.40L145.88-12.40L158-12.40Q157.68-14.72 156.04-16.16Q154.40-17.60 151.96-17.60L151.96-17.60Z M191.64-10.56Q191.64-10.04 191.56-9.08L191.56-9.08L174.80-9.08Q175.24-6.72 177.10-5.34Q178.96-3.96 181.72-3.96L181.72-3.96Q185.24-3.96 187.52-6.28L187.52-6.28L190.20-3.20Q188.76-1.48 186.56-0.60Q184.36 0.28 181.60 0.28L181.60 0.28Q178.08 0.28 175.40-1.12Q172.72-2.52 171.26-5.02Q169.80-7.52 169.80-10.68L169.80-10.68Q169.80-13.80 171.22-16.30Q172.64-18.80 175.16-20.20Q177.68-21.60 180.84-21.60L180.84-21.60Q183.96-21.60 186.42-20.22Q188.88-18.84 190.26-16.34Q191.64-13.84 191.64-10.56L191.64-10.56ZM180.84-17.60Q178.44-17.60 176.78-16.18Q175.12-14.76 174.76-12.40L174.76-12.40L186.88-12.40Q186.56-14.72 184.92-16.16Q183.28-17.60 180.84-17.60L180.84-17.60Z M205.20-18.24Q207.36-21.60 212.80-21.60L212.80-21.60L212.80-16.84Q212.16-16.96 211.64-16.96L211.64-16.96Q208.72-16.96 207.08-15.26Q205.44-13.56 205.44-10.36L205.44-10.36L205.44 0L200.44 0L200.44-21.36L205.20-21.36L205.20-18.24Z M221.04 0L221.04-21.36L226.04-21.36L226.04 0L221.04 0ZM223.56-24.88Q222.20-24.88 221.28-25.74Q220.36-26.60 220.36-27.88L220.36-27.88Q220.36-29.16 221.28-30.02Q222.20-30.88 223.56-30.88L223.56-30.88Q224.92-30.88 225.84-30.06Q226.76-29.24 226.76-28L226.76-28Q226.76-26.68 225.86-25.78Q224.96-24.88 223.56-24.88L223.56-24.88Z M248.72-21.60Q252.76-21.60 255.20-19.24Q257.64-16.88 257.64-12.24L257.64-12.24L257.64 0L252.64 0L252.64-11.60Q252.64-14.40 251.32-15.82Q250.00-17.24 247.56-17.24L247.56-17.24Q244.80-17.24 243.20-15.58Q241.60-13.92 241.60-10.80L241.60-10.80L241.60 0L236.60 0L236.60-21.36L241.36-21.36L241.36-18.60Q242.60-20.08 244.48-20.84Q246.36-21.60 248.72-21.60L248.72-21.60Z M284.64-21.36L289.40-21.36L289.40-3.24Q289.40 8.04 277.88 8.04L277.88 8.04Q274.80 8.04 272.04 7.26Q269.28 6.48 267.48 5L267.48 5L269.72 1.24Q271.12 2.40 273.26 3.10Q275.40 3.80 277.60 3.80L277.60 3.80Q281.12 3.80 282.76 2.20Q284.40 0.60 284.40-2.68L284.40-2.68L284.40-3.80Q283.12-2.40 281.28-1.68Q279.44-0.96 277.24-0.96L277.24-0.96Q274.20-0.96 271.74-2.26Q269.28-3.56 267.86-5.92Q266.44-8.28 266.44-11.32L266.44-11.32Q266.44-14.36 267.86-16.70Q269.28-19.04 271.74-20.32Q274.20-21.60 277.24-21.60L277.24-21.60Q279.56-21.60 281.46-20.84Q283.36-20.08 284.64-18.52L284.64-18.52L284.64-21.36ZM278-5.20Q280.84-5.20 282.66-6.90Q284.48-8.60 284.48-11.32L284.48-11.32Q284.48-14 282.66-15.68Q280.84-17.36 278-17.36L278-17.36Q275.12-17.36 273.30-15.68Q271.48-14 271.48-11.32L271.48-11.32Q271.48-8.60 273.30-6.90Q275.12-5.20 278-5.20L278-5.20Z"/></g>
</svg>
</g><g opacity="1" transform="rotate(0 593.3569 361.1148)">
<svg width="241.6432" height="61.1049" x="593.3569" y="361.1148" version="1.1" preserveAspectRatio="none" viewBox="1.28 -29.68 149.32 37.760000000000005">
  <g transform="matrix(1 0 0 1 0 0)" class="companyName"><path id="id-D6z1nYkh6" d="M19.16-21.52L25.08-21.52L25.08-3.60Q25.08 2.32 22 5.20Q18.92 8.08 13 8.08L13 8.08Q9.88 8.08 7.08 7.32Q4.28 6.56 2.44 5.12L2.44 5.12L4.92 0.64Q6.28 1.76 8.36 2.42Q10.44 3.08 12.52 3.08L12.52 3.08Q15.76 3.08 17.30 1.62Q18.84 0.16 18.84-2.80L18.84-2.80L18.84-3.72Q16.40-1.04 12.04-1.04L12.04-1.04Q9.08-1.04 6.62-2.34Q4.16-3.64 2.72-6Q1.28-8.36 1.28-11.44L1.28-11.44Q1.28-14.52 2.72-16.88Q4.16-19.24 6.62-20.54Q9.08-21.84 12.04-21.84L12.04-21.84Q16.72-21.84 19.16-18.76L19.16-18.76L19.16-21.52ZM13.28-6.16Q15.76-6.16 17.34-7.62Q18.92-9.08 18.92-11.44L18.92-11.44Q18.92-13.80 17.34-15.26Q15.76-16.72 13.28-16.72L13.28-16.72Q10.80-16.72 9.20-15.26Q7.60-13.80 7.60-11.44L7.60-11.44Q7.60-9.08 9.20-7.62Q10.80-6.16 13.28-6.16L13.28-6.16Z M39.56-21.84Q44.56-21.84 47.24-19.46Q49.92-17.08 49.92-12.28L49.92-12.28L49.92 0L44.08 0L44.08-2.68Q42.32 0.32 37.52 0.32L37.52 0.32Q35.04 0.32 33.22-0.52Q31.40-1.36 30.44-2.84Q29.48-4.32 29.48-6.20L29.48-6.20Q29.48-9.20 31.74-10.92Q34-12.64 38.72-12.64L38.72-12.64L43.68-12.64Q43.68-14.68 42.44-15.78Q41.20-16.88 38.72-16.88L38.72-16.88Q37-16.88 35.34-16.34Q33.68-15.80 32.52-14.88L32.52-14.88L30.28-19.24Q32.04-20.48 34.50-21.16Q36.96-21.84 39.56-21.84L39.56-21.84ZM39.08-3.88Q40.68-3.88 41.92-4.62Q43.16-5.36 43.68-6.80L43.68-6.80L43.68-9L39.40-9Q35.56-9 35.56-6.48L35.56-6.48Q35.56-5.28 36.50-4.58Q37.44-3.88 39.08-3.88L39.08-3.88Z M71.48-29.68L77.72-29.68L77.72 0L71.76 0L71.76-2.48Q69.44 0.32 65.04 0.32L65.04 0.32Q62 0.32 59.54-1.04Q57.08-2.40 55.68-4.92Q54.28-7.44 54.28-10.76L54.28-10.76Q54.28-14.08 55.68-16.60Q57.08-19.12 59.54-20.48Q62-21.84 65.04-21.84L65.04-21.84Q69.16-21.84 71.48-19.24L71.48-19.24L71.48-29.68ZM66.12-4.80Q68.48-4.80 70.04-6.42Q71.60-8.04 71.60-10.76L71.60-10.76Q71.60-13.48 70.04-15.10Q68.48-16.72 66.12-16.72L66.12-16.72Q63.72-16.72 62.16-15.10Q60.60-13.48 60.60-10.76L60.60-10.76Q60.60-8.04 62.16-6.42Q63.72-4.80 66.12-4.80L66.12-4.80Z M99.76-21.52L105.68-21.52L105.68-3.60Q105.68 2.32 102.60 5.20Q99.52 8.08 93.60 8.08L93.60 8.08Q90.48 8.08 87.68 7.32Q84.88 6.56 83.04 5.12L83.04 5.12L85.52 0.64Q86.88 1.76 88.96 2.42Q91.04 3.08 93.12 3.08L93.12 3.08Q96.36 3.08 97.90 1.62Q99.44 0.16 99.44-2.80L99.44-2.80L99.44-3.72Q97-1.04 92.64-1.04L92.64-1.04Q89.68-1.04 87.22-2.34Q84.76-3.64 83.32-6Q81.88-8.36 81.88-11.44L81.88-11.44Q81.88-14.52 83.32-16.88Q84.76-19.24 87.22-20.54Q89.68-21.84 92.64-21.84L92.64-21.84Q97.32-21.84 99.76-18.76L99.76-18.76L99.76-21.52ZM93.88-6.16Q96.36-6.16 97.94-7.62Q99.52-9.08 99.52-11.44L99.52-11.44Q99.52-13.80 97.94-15.26Q96.36-16.72 93.88-16.72L93.88-16.72Q91.40-16.72 89.80-15.26Q88.20-13.80 88.20-11.44L88.20-11.44Q88.20-9.08 89.80-7.62Q91.40-6.16 93.88-6.16L93.88-6.16Z M132.56-10.68Q132.56-10.56 132.44-9L132.44-9L116.16-9Q116.60-7 118.24-5.84Q119.88-4.68 122.32-4.68L122.32-4.68Q124-4.68 125.30-5.18Q126.60-5.68 127.72-6.76L127.72-6.76L131.04-3.16Q128 0.32 122.16 0.32L122.16 0.32Q118.52 0.32 115.72-1.10Q112.92-2.52 111.40-5.04Q109.88-7.56 109.88-10.76L109.88-10.76Q109.88-13.92 111.38-16.46Q112.88-19 115.50-20.42Q118.12-21.84 121.36-21.84L121.36-21.84Q124.52-21.84 127.08-20.48Q129.64-19.12 131.10-16.58Q132.56-14.04 132.56-10.68L132.56-10.68ZM121.40-17.12Q119.28-17.12 117.84-15.92Q116.40-14.72 116.08-12.64L116.08-12.64L126.68-12.64Q126.36-14.68 124.92-15.90Q123.48-17.12 121.40-17.12L121.40-17.12Z M148.92-5.44L150.60-1.04Q149.68-0.36 148.34-0.02Q147 0.32 145.52 0.32L145.52 0.32Q141.68 0.32 139.58-1.64Q137.48-3.60 137.48-7.40L137.48-7.40L137.48-16.24L134.16-16.24L134.16-21.04L137.48-21.04L137.48-26.28L143.72-26.28L143.72-21.04L149.08-21.04L149.08-16.24L143.72-16.24L143.72-7.48Q143.72-6.12 144.42-5.38Q145.12-4.64 146.40-4.64L146.40-4.64Q147.88-4.64 148.92-5.44L148.92-5.44Z"/></g>
</svg>
</g><g opacity="1" transform="rotate(0 572.5812 344.6165)">
<svg width="3.6663" height="123.4319" x="572.5812" y="344.6165" version="1.1" preserveAspectRatio="none" viewBox="0 0 3.6663 123.4319">
  <rect x="0" y="0" width="3.6663" height="123.4319" class="companyName shapeStroke-str" style="stroke-width:0;" rx="0px" ry="0px" />
</svg>
</g></svg>